<svg width="12" height="12" viewBox="0 0 12 12" fill="none" xmlns="http://www.w3.org/2000/svg">
<path d="M6.76833 1.43976C6.64071 1.17412 6.33598 1 6 1C5.66402 1 5.35929 1.17412 5.23167 1.43976L2.10624 7.86871L1.06443 10.0117C0.887324 10.3755 1.08787 10.793 1.51241 10.9448C1.93695 11.0966 2.42399 10.9247 2.6011 10.5608L3.42934 8.8576H8.57066L9.3989 10.5608C9.57601 10.9247 10.0631 11.0966 10.4876 10.9448C10.9121 10.793 11.1127 10.3755 10.9356 10.0117L9.89376 7.86871L6.76833 1.43976ZM7.87526 7.42895H4.12474L6 3.57158L7.87526 7.42895Z" fill="#FF5555"/>
</svg>
