<svg width="18" height="17" viewBox="0 0 18 17" fill="none" xmlns="http://www.w3.org/2000/svg">
<path d="M17.0271 16.402L11.1537 0.783203C11.1285 0.716554 11.0836 0.659161 11.025 0.618682C10.9663 0.578202 10.8968 0.55656 10.8255 0.556641H7.17553C7.02866 0.556641 6.89897 0.647266 6.84741 0.783203L0.973969 16.402C0.933344 16.5098 0.947406 16.6301 1.01303 16.7238C1.07866 16.8176 1.18491 16.8754 1.30053 16.8754H5.15053C5.30053 16.8754 5.43491 16.7785 5.48334 16.6348L6.37397 13.9504H11.6255L12.5177 16.6348C12.5646 16.7785 12.699 16.8754 12.8505 16.8754H16.7005C16.7571 16.8754 16.8128 16.8616 16.8629 16.8353C16.913 16.809 16.956 16.771 16.9881 16.7244C17.0202 16.6778 17.0405 16.6241 17.0473 16.568C17.0541 16.5118 17.0472 16.4548 17.0271 16.402ZM7.47397 10.6363L9.00053 6.03945L10.5271 10.6379H7.47397V10.6363Z" fill="#FF5555"/>
</svg>
